<?xml version="1.0" encoding="UTF-8"?>
<svg version="1.1" xmlns="http://www.w3.org/2000/svg" width="500" height="500">
<path d="M0 0 C165 0 330 0 500 0 C500 165 500 330 500 500 C335 500 170 500 0 500 C0 335 0 170 0 0 Z " fill="transparent" transform="translate(0,0)"/>
<path d="M0 0 C0.9061225 0.00092179 1.81224501 0.00184359 2.74582577 0.00279331 C3.78214138 0.00141865 4.81845699 0.00004398 5.88617611 -0.00137234 C7.60599445 0.00402058 7.60599445 0.00402058 9.3605566 0.00952244 C10.56039181 0.00937641 11.76022701 0.00923038 12.99642086 0.00907993 C16.29586749 0.00965889 19.59525222 0.01468805 22.89468789 0.02165389 C26.33935856 0.0278881 29.78402997 0.02849128 33.22870541 0.0296793 C39.75584288 0.03279242 46.28296369 0.04100554 52.81009382 0.05102879 C60.23923575 0.06219053 67.66837845 0.06770053 75.09752667 0.07272422 C90.38369957 0.08318817 105.66985478 0.10098771 120.95601559 0.12304783 C120.95601559 7.38304783 120.95601559 14.64304783 120.95601559 22.12304783 C92.90601559 22.45304783 64.85601559 22.78304783 35.95601559 23.12304783 C42.03136715 29.12879002 48.10671871 35.1345322 54.36617184 41.32226658 C58.68787243 45.60942724 63.0076572 49.8984519 67.32474327 54.1902523 C72.92229317 59.75451294 78.5242177 65.31413087 84.14278316 70.85717869 C88.59019339 75.24484069 93.02700422 79.64290011 97.45133585 84.05383712 C99.79507173 86.38974136 102.14532113 88.71841839 104.50528812 91.03794003 C107.1371109 93.6264237 109.74977047 96.23285999 112.35860348 98.84448338 C113.14766079 99.61196903 113.9367181 100.37945469 114.74968624 101.17019749 C115.80780766 102.24069088 115.80780766 102.24069088 116.88730526 103.3328104 C117.50767194 103.94764632 118.12803862 104.56248224 118.76720428 105.19594955 C119.95601559 107.12304783 119.95601559 107.12304783 119.79331779 109.6768322 C118.5893521 113.19427151 116.29560601 115.44226407 113.70601559 117.99804783 C112.98865231 118.76375095 112.98865231 118.76375095 112.25679684 119.54492283 C110.81539059 120.99023533 110.81539059 120.99023533 107.95601559 123.12304783 C103.98713038 122.85463482 102.01098078 121.67751731 99.24170589 118.90321445 C98.54487194 118.21476948 97.84803799 117.5263245 97.13008785 116.81701756 C96.38130367 116.05699436 95.63251949 115.29697117 94.86104488 114.51391697 C94.06052197 113.71719074 93.25999905 112.92046452 92.43521786 112.09959507 C89.79034929 109.46213945 87.16016126 106.8105525 84.53023434 104.15820408 C82.69964952 102.32523568 80.86832547 100.49300528 79.03629208 98.66148472 C75.19950716 94.82157071 71.36930311 90.97527471 67.54463863 87.12329197 C63.11883965 82.66599887 58.68263041 78.21928916 54.24032563 73.77845007 C49.96874553 69.50808914 45.70301614 65.23194829 41.44024754 60.95278835 C39.62447887 59.1306363 37.80747949 57.30970983 35.98925495 55.49000835 C33.45575432 52.95219386 30.92893697 50.40791776 28.40401363 47.86157322 C27.6451083 47.10357426 26.88620296 46.34557529 26.1043005 45.56460667 C25.42156567 44.87334187 24.73883083 44.18207706 24.03540707 43.46986485 C23.43720496 42.86831105 22.83900286 42.26675726 22.22267342 41.64697456 C20.95601559 40.12304783 20.95601559 40.12304783 20.95601559 38.12304783 C20.29601559 38.12304783 19.63601559 38.12304783 18.95601559 38.12304783 C18.95601559 66.50304783 18.95601559 94.88304783 18.95601559 124.12304783 C12.02601559 124.12304783 5.09601559 124.12304783 -2.04398441 124.12304783 C-3.68040923 122.48662301 -3.1700197 120.63534515 -3.17096806 118.37793064 C-3.17378788 117.35147434 -3.1766077 116.32501804 -3.17951298 115.26745701 C-3.17748875 114.13183323 -3.17546452 112.99620945 -3.17337894 111.82617283 C-3.17600742 110.04345982 -3.17600742 110.04345982 -3.178689 108.2247324 C-3.18234712 104.95622007 -3.18147413 101.68774794 -3.17830992 98.41923618 C-3.17578588 95.0057272 -3.17812398 91.59222098 -3.17969608 88.17871189 C-3.18151765 82.44530852 -3.1791118 76.711918 -3.17435551 70.97851658 C-3.16891291 64.34099007 -3.17067557 57.70349428 -3.17618191 51.06596851 C-3.18071341 45.37680517 -3.18136341 39.68765109 -3.17874324 33.99848652 C-3.17718067 30.59635763 -3.17698617 27.19424319 -3.18027973 23.79211521 C-3.18280451 20.00136295 -3.17896812 16.2106706 -3.17337894 12.41992283 C-3.17540318 11.28429905 -3.17742741 10.14867527 -3.17951298 8.97863865 C-3.17669315 7.95218235 -3.17387333 6.92572605 -3.17096806 5.86816502 C-3.17059103 4.97071568 -3.170214 4.07326633 -3.16982555 3.14862156 C-2.99851393 0.39114236 -2.75795592 0.1660289 0 0 Z " fill="#F8F8F8" transform="translate(253.04398441314697,248.87695217132568)"/>
<path d="M0 0 C7.26 0 14.52 0 22 0 C22 28.38 22 56.76 22 86 C22.66 86 23.32 86 24 86 C24.2634597 85.41177837 24.5269194 84.82355675 24.79836273 84.21751022 C26.05338384 81.90148507 27.36933044 80.37912416 29.22619629 78.51983643 C29.89077347 77.8496196 30.55535065 77.17940277 31.24006653 76.48887634 C32.33263008 75.40238548 32.33263008 75.40238548 33.44726562 74.29394531 C34.21487717 73.52282913 34.98248871 72.75171295 35.77336121 71.95722961 C38.31264729 69.40913872 40.85918195 66.86843535 43.40625 64.328125 C45.17009297 62.56293531 46.93363891 60.79744877 48.69689941 59.03167725 C52.86595521 54.85929426 57.04015034 50.69210117 61.21617937 46.52669883 C65.02477914 42.72668742 68.82601112 38.91937521 72.62542391 35.11018109 C76.73433142 30.99111857 80.84882613 26.87767954 84.96574402 22.76662445 C86.71838919 21.01531746 88.46953886 19.26251256 90.2191925 17.50821686 C92.65891353 15.06344394 95.10490641 12.62512863 97.55273438 10.18847656 C98.64529793 9.08984032 98.64529793 9.08984032 99.75993347 7.9690094 C100.42451065 7.31007187 101.08908783 6.65113434 101.77380371 5.972229 C102.64100163 5.10616217 102.64100163 5.10616217 103.52571869 4.22259903 C105 3 105 3 107 3 C107 2.34 107 1.68 107 1 C112.38493928 1.30970894 114.82467404 4.35430107 118.3125 8.0625 C118.86228516 8.63033203 119.41207031 9.19816406 119.97851562 9.78320312 C121.32827365 11.17990925 122.66541525 12.58878837 124 14 C122.62175583 17.0957554 121.04096882 19.20686289 118.64645386 21.59405518 C117.9537439 22.28951447 117.26103394 22.98497375 116.54733276 23.70150757 C115.78776276 24.45388702 115.02819275 25.20626648 114.24560547 25.98144531 C113.44552063 26.7818222 112.64543579 27.5821991 111.82110596 28.40682983 C109.17451263 31.05202947 106.52090472 33.69007385 103.8671875 36.328125 C102.03115034 38.16043219 100.19555414 39.99318134 98.36038208 41.82635498 C94.02212581 46.15775434 89.67944496 50.48467104 85.33458912 54.80944896 C80.38752156 59.73415149 75.44614083 64.6645433 70.5052278 69.59541941 C60.34313072 79.7366189 50.17391755 89.87065984 40 100 C41.55641457 100.0154612 41.55641457 100.0154612 43.14427185 100.03123474 C52.90082473 100.12879604 62.65731137 100.23151327 72.41375637 100.33933926 C77.43019298 100.39461239 82.44663537 100.44803926 87.46313477 100.49731445 C92.30014866 100.54489343 97.13708931 100.59723363 101.97401619 100.65294075 C103.8236618 100.67339371 105.67332752 100.69210181 107.52300835 100.70907402 C110.10452454 100.7330532 112.68590097 100.76311618 115.26733398 100.79467773 C116.03985001 100.8004332 116.81236603 100.80618866 117.60829163 100.81211853 C122.88594784 100.88594784 122.88594784 100.88594784 124 102 C124.08685603 103.56172745 124.10702219 105.12729344 124.09765625 106.69140625 C124.09282227 108.10776367 124.09282227 108.10776367 124.08789062 109.55273438 C124.07532227 111.04256836 124.07532227 111.04256836 124.0625 112.5625 C124.05798828 113.55958984 124.05347656 114.55667969 124.04882812 115.58398438 C124.03700007 118.05604849 124.02051849 120.52799518 124 123 C107.98006463 123.02332916 91.96013474 123.04097926 75.9401865 123.05181217 C68.5023549 123.05697509 61.06453383 123.06401771 53.62670898 123.07543945 C47.14618658 123.08538641 40.66567181 123.09185346 34.18514198 123.09408849 C30.75169458 123.09539558 27.318269 123.0984813 23.88482857 123.10573006 C20.05806179 123.11374416 16.23131665 123.11399113 12.40454102 123.11352539 C10.68472267 123.1189183 10.68472267 123.1189183 8.93016052 123.12442017 C7.3756871 123.12235817 7.3756871 123.12235817 5.78981018 123.12025452 C4.88368768 123.12117631 3.97756517 123.1220981 3.04398441 123.12304783 C1 123 1 123 0 122 C-0.09594225 120.41845152 -0.1218796 118.83260875 -0.12025452 117.24815369 C-0.12162918 116.22025223 -0.12300385 115.19235077 -0.12442017 114.13330078 C-0.12082489 112.99610596 -0.11722961 111.85891113 -0.11352539 110.68725586 C-0.11367142 109.49717422 -0.11381744 108.30709259 -0.1139679 107.08094788 C-0.11338894 103.80836726 -0.10835981 100.53582893 -0.10139394 97.26325679 C-0.09515967 93.84661335 -0.09455654 90.42996917 -0.09336853 87.01332092 C-0.09025543 80.53930733 -0.08204233 74.06531054 -0.07201904 67.59130436 C-0.06085725 60.2226208 -0.05534729 52.85393645 -0.05032361 45.48524654 C-0.03985969 30.32348808 -0.02206018 15.16174634 0 0 Z " fill="#F9F8F8" transform="translate(250,116)"/>
<path d="M0 0 C7.26 0 14.52 0 22 0 C22 40.59 22 81.18 22 123 C-18.92 123 -59.84 123 -102 123 C-102 115.74 -102 108.48 -102 101 C-60.42 100.505 -60.42 100.505 -18 100 C-45.72 72.28 -73.44 44.56 -102 16 C-100.00866319 12.01732637 -97.70318077 9.30213291 -94.625 6.1875 C-94.14289063 5.67251953 -93.66078125 5.15753906 -93.1640625 4.62695312 C-91.7265625 3.16796875 -91.7265625 3.16796875 -89 1 C-85.54580145 1.29349123 -83.85113418 2.77838106 -81.46409607 5.18186951 C-80.78138641 5.86190033 -80.09867676 6.54193115 -79.39527893 7.24256897 C-78.65696335 7.99324142 -77.91864777 8.74391388 -77.15795898 9.51733398 C-76.37215454 10.30430664 -75.5863501 11.0912793 -74.7767334 11.90209961 C-72.17616044 14.50987097 -69.5862632 17.12799231 -66.99609375 19.74609375 C-65.19368434 21.5566371 -63.39053821 23.3664473 -61.58668518 25.17555237 C-57.32092827 29.45669617 -53.0615613 33.74409173 -48.80555922 38.03492552 C-40.73213491 46.17393225 -32.64446358 54.29876247 -24.55562019 62.42244148 C-21.89668488 65.09536796 -19.2415845 67.77205818 -16.58702087 70.44932556 C-14.96231196 72.08405625 -13.33752476 73.71870914 -11.71264648 75.35327148 C-10.97230667 76.10191971 -10.23196686 76.85056793 -9.4691925 77.62190247 C-8.44935776 78.64617844 -8.44935776 78.64617844 -7.40892029 79.69114685 C-6.81955909 80.2853263 -6.23019789 80.87950575 -5.62297726 81.49169064 C-3.86706995 83.20424774 -3.86706995 83.20424774 -1 85 C-0.67 56.95 -0.34 28.9 0 0 Z " fill="#F9F9F9" transform="translate(219,116)"/>
<path d="M0 0 C40.59 0 81.18 0 123 0 C123 40.92 123 81.84 123 124 C116.07 124 109.14 124 102 124 C102 95.62 102 67.24 102 38 C95.37731187 43.77367478 95.37731187 43.77367478 89.0625 49.8125 C88.31097656 50.56144531 87.55945313 51.31039062 86.78515625 52.08203125 C84.94138867 53.88220438 84.94138867 53.88220438 84 56 C83.34 56 82.68 56 82 56 C81.67 56.99 81.34 57.98 81 59 C79.328125 60.61328125 79.328125 60.61328125 77.25 62.3125 C74.69369568 64.4723721 72.39466901 66.56649491 70.3125 69.1875 C68 72 68 72 65.625 73.875 C63.32177926 75.73951203 61.64817818 77.50192723 59.75 79.75 C56.58341702 83.46729307 53.14947175 86.62133704 49.40625 89.75 C47.43284246 91.5952642 45.7432205 93.4208905 43.99609375 95.46875 C38.83712841 101.45353842 33.16785424 106.93845696 27.5625 112.5 C26.4379167 113.61955632 25.31356595 114.73934629 24.18945312 115.859375 C21.46230656 118.57561534 18.73204093 121.28868292 16 124 C13.18121988 122.71825282 11.14758504 121.38992385 8.984375 119.1796875 C8.19160156 118.37724609 8.19160156 118.37724609 7.3828125 117.55859375 C6.84398438 117.00300781 6.30515625 116.44742188 5.75 115.875 C5.19570312 115.31167969 4.64140625 114.74835938 4.0703125 114.16796875 C2.70895515 112.78313972 1.35385141 111.39216796 0 110 C1.3767413 106.90780051 2.95244375 104.80126858 5.34681702 102.41940308 C6.03808182 101.72683411 6.72934662 101.03426514 7.44155884 100.32070923 C8.1995578 99.57147186 8.95755676 98.8222345 9.73852539 98.05029297 C10.53700394 97.25312866 11.33548248 96.45596436 12.15815735 95.63464355 C14.80009381 92.99920153 17.4489269 90.37080075 20.09765625 87.7421875 C21.93136907 85.91474367 23.76456862 84.08678468 25.59727478 82.2583313 C29.9309796 77.93657694 34.26875168 73.61894823 38.60886902 69.30363476 C46.84667488 61.11282237 55.0773709 52.91488663 63.30407524 44.71292496 C66.0122931 42.01496406 68.72388008 39.32042289 71.43580627 36.62619019 C73.08760775 34.98121376 74.73930132 33.33612898 76.39086914 31.69091797 C77.15089233 30.93763214 77.91091553 30.18434631 78.69396973 29.40823364 C79.3824147 28.72130432 80.07085968 28.034375 80.78016663 27.32662964 C81.38134339 26.7289723 81.98252016 26.13131496 82.60191441 25.5155468 C84.09900746 24.0334489 84.09900746 24.0334489 85 22 C56.95 22 28.9 22 0 22 C0 14.74 0 7.48 0 0 Z " fill="#FAFAFA" transform="translate(117,249)"/>
</svg>
